<?xml version="1.0" standalone="no"?>
<!DOCTYPE svg PUBLIC "-//W3C//DTD SVG 20010904//EN"
 "http://www.w3.org/TR/2001/REC-SVG-20010904/DTD/svg10.dtd">
<svg version="1.0" xmlns="http://www.w3.org/2000/svg"
 width="96.000000pt" height="96.000000pt" viewBox="0 0 96.000000 96.000000"
 preserveAspectRatio="xMidYMid meet">
<metadata>
Created by potrace 1.16, written by Peter Selinger 2001-2019
</metadata>
<g transform="translate(0.000000,96.000000) scale(0.100000,-0.100000)"
fill="#000000" stroke="none">
<path d="M443 922 c-10 -6 -413 -834 -413 -848 0 -2 14 -10 30 -19 29 -15 31
-15 42 10 l11 25 367 0 367 0 11 -25 c11 -25 13 -25 42 -10 16 9 30 17 30 19
0 2 -27 60 -60 130 l-60 127 0 255 0 254 -30 0 -30 0 -1 -187 -1 -188 -109
225 c-61 123 -115 228 -122 232 -16 10 -59 10 -74 0z m97 -188 c30 -64 57
-120 58 -125 2 -5 -49 -9 -118 -9 -67 0 -120 4 -118 9 14 36 114 240 118 240
3 0 30 -52 60 -115z m186 -391 l93 -193 -95 0 -94 0 0 117 c0 156 2 153 -148
153 -155 0 -152 3 -152 -152 l0 -118 -94 0 -95 0 74 154 c41 85 83 173 95 196
l21 41 151 -3 151 -3 93 -192z m-156 -88 l0 -105 -90 0 -90 0 0 98 c0 54 3
102 7 105 3 4 44 7 90 7 l83 0 0 -105z"/>
</g>
</svg>
