<?xml version="1.0" standalone="no"?>
<!DOCTYPE svg PUBLIC "-//W3C//DTD SVG 20010904//EN"
 "http://www.w3.org/TR/2001/REC-SVG-20010904/DTD/svg10.dtd">
<svg version="1.0" xmlns="http://www.w3.org/2000/svg"
 width="96.000000pt" height="96.000000pt" viewBox="0 0 96.000000 96.000000"
 preserveAspectRatio="xMidYMid meet">
<metadata>
Created by potrace 1.16, written by Peter Selinger 2001-2019
</metadata>
<g transform="translate(0.000000,96.000000) scale(0.100000,-0.100000)"
fill="#000000" stroke="none">
<path d="M450 875 c0 -30 -3 -55 -6 -55 -4 0 -29 14 -56 30 -57 35 -57 35 -74
13 -23 -31 -16 -42 61 -85 l75 -43 0 -98 c0 -54 -3 -96 -7 -94 -5 2 -45 26
-90 52 l-83 47 0 84 0 84 -30 0 -30 0 0 -65 c0 -36 -2 -65 -5 -65 -3 0 -23 11
-45 25 -22 14 -44 25 -49 25 -9 0 -41 -39 -41 -50 0 -3 20 -16 45 -30 25 -14
45 -28 45 -32 0 -4 -23 -19 -50 -34 -27 -15 -50 -31 -50 -36 0 -8 17 -46 25
-56 1 -1 37 17 79 42 l78 44 79 -47 c43 -25 79 -48 79 -51 0 -4 -36 -27 -81
-52 l-81 -46 -75 45 c-42 24 -76 43 -78 41 -8 -9 -25 -48 -25 -56 0 -5 23 -21
50 -36 28 -15 50 -30 50 -34 0 -4 -20 -18 -45 -32 -25 -14 -45 -28 -45 -31 0
-4 8 -17 19 -30 l19 -23 51 27 51 28 0 -65 0 -66 30 0 30 0 0 84 0 84 83 47
c45 26 85 50 90 52 4 2 7 -40 7 -94 l0 -98 -79 -45 -80 -44 17 -28 c9 -15 20
-28 24 -28 4 0 30 13 58 30 28 16 53 30 55 30 3 0 5 -25 5 -55 0 -54 0 -55 30
-55 30 0 30 1 30 55 0 30 3 55 6 55 4 0 29 -14 56 -30 57 -35 57 -35 74 -12
23 30 16 41 -61 84 l-75 43 0 98 c0 54 3 96 8 94 4 -2 44 -26 90 -52 l82 -47
0 -84 0 -84 30 0 30 0 0 65 c0 36 2 65 5 65 3 0 23 -11 45 -25 22 -14 44 -25
49 -25 9 0 41 39 41 50 0 3 -20 16 -45 30 -25 14 -45 28 -45 32 0 4 23 19 50
34 28 15 50 31 50 36 0 8 -17 46 -25 56 -1 1 -37 -17 -79 -42 l-78 -44 -79 47
c-43 25 -79 48 -79 51 0 4 36 27 81 52 l81 46 75 -45 c42 -24 76 -43 78 -41 8
9 25 48 25 56 0 5 -22 21 -50 36 -27 15 -50 30 -50 34 0 4 20 18 45 32 25 14
45 28 45 31 0 4 -8 17 -19 30 l-19 23 -51 -27 -51 -28 0 65 0 66 -30 0 -30 0
0 -84 0 -84 -82 -47 c-46 -26 -86 -50 -90 -52 -5 -2 -8 40 -8 94 l0 98 79 45
80 44 -17 28 c-9 15 -20 28 -24 28 -4 0 -30 -13 -58 -30 -28 -16 -53 -30 -55
-30 -3 0 -5 25 -5 55 0 54 0 55 -30 55 -30 0 -30 -1 -30 -55z"/>
</g>
</svg>
