<?xml version="1.0" standalone="no"?>
<!DOCTYPE svg PUBLIC "-//W3C//DTD SVG 20010904//EN"
 "http://www.w3.org/TR/2001/REC-SVG-20010904/DTD/svg10.dtd">
<svg version="1.0" xmlns="http://www.w3.org/2000/svg"
 width="96.000000pt" height="96.000000pt" viewBox="0 0 96.000000 96.000000"
 preserveAspectRatio="xMidYMid meet">
<metadata>
Created by potrace 1.16, written by Peter Selinger 2001-2019
</metadata>
<g transform="translate(0.000000,96.000000) scale(0.100000,-0.100000)"
fill="#000000" stroke="none">
<path d="M393 916 c-103 -34 -196 -115 -238 -209 -49 -107 -59 -96 132 -146
92 -24 171 -45 174 -47 3 -2 -21 -101 -53 -221 -32 -120 -58 -221 -58 -225 0
-5 15 -8 33 -8 39 0 29 -24 103 253 26 97 52 177 58 177 6 0 83 -20 171 -44
98 -26 164 -40 170 -34 6 5 10 59 10 121 0 101 -3 118 -27 169 -38 81 -108
152 -187 190 -55 26 -79 32 -156 34 -58 3 -105 -1 -132 -10z m165 -68 c-3 -7
-20 -70 -39 -141 -26 -100 -36 -126 -49 -123 -8 3 -34 10 -57 16 -24 6 -43 17
-43 24 0 27 73 159 109 197 36 37 89 55 79 27z m-188 -56 c-16 -26 -39 -73
-51 -105 -16 -43 -26 -56 -38 -53 -9 3 -28 8 -43 12 -34 8 -34 14 -4 62 28 44
68 82 116 111 51 30 53 27 20 -27z m302 0 c15 -43 17 -237 3 -251 -7 -6 -30
-4 -66 6 l-56 16 33 126 c19 69 36 132 39 138 8 22 34 3 47 -35z m134 -128
c23 -49 37 -154 23 -169 -4 -3 -25 -1 -48 5 l-41 11 8 47 c4 26 7 80 7 120 0
82 7 80 51 -14z"/>
<path d="M94 266 c-50 -50 -50 -122 0 -172 30 -30 40 -34 86 -34 46 0 56 4 86
34 30 30 34 40 34 86 0 75 -45 120 -120 120 -46 0 -56 -4 -86 -34z"/>
</g>
</svg>
