<?xml version="1.0" standalone="no"?>
<!DOCTYPE svg PUBLIC "-//W3C//DTD SVG 20010904//EN"
 "http://www.w3.org/TR/2001/REC-SVG-20010904/DTD/svg10.dtd">
<svg version="1.0" xmlns="http://www.w3.org/2000/svg"
 width="96.000000pt" height="96.000000pt" viewBox="0 0 96.000000 96.000000"
 preserveAspectRatio="xMidYMid meet">
<metadata>
Created by potrace 1.16, written by Peter Selinger 2001-2019
</metadata>
<g transform="translate(0.000000,96.000000) scale(0.100000,-0.100000)"
fill="#000000" stroke="none">
<path d="M375 903 c-3 -16 -17 -44 -29 -63 -45 -69 -76 -140 -76 -175 0 -32 2
-35 29 -35 28 0 41 14 41 47 0 8 22 54 50 102 27 47 52 101 56 119 6 31 6 32
-29 32 -30 0 -36 -4 -42 -27z"/>
<path d="M537 923 c-4 -3 -7 -16 -7 -28 0 -21 -6 -33 -73 -155 -20 -36 -37
-75 -37 -87 0 -20 5 -23 35 -23 26 0 35 4 35 16 0 9 23 56 51 105 34 58 53
105 57 134 5 44 4 45 -25 45 -16 0 -33 -3 -36 -7z"/>
<path d="M687 923 c-4 -3 -7 -16 -7 -28 0 -21 -6 -33 -73 -155 -20 -36 -37
-75 -37 -87 0 -20 5 -23 35 -23 26 0 35 4 35 16 0 9 23 56 51 105 34 58 53
105 57 134 5 44 4 45 -25 45 -16 0 -33 -3 -36 -7z"/>
<path d="M187 593 c-4 -3 -7 -112 -7 -240 l0 -234 39 -42 40 -42 169 -3 c157
-3 174 -2 212 18 43 22 80 71 80 107 0 21 5 22 73 25 l72 3 0 160 0 160 -72 3
-72 3 -3 42 -3 42 -261 3 c-143 1 -263 -1 -267 -5z m173 -112 c0 -58 -1 -60
-27 -63 l-28 -3 0 -85 0 -85 85 0 85 0 0 85 0 85 -27 3 c-27 3 -28 5 -28 63
l0 59 120 0 120 0 0 -180 c0 -260 -4 -265 -227 -265 -131 0 -133 0 -160 28
l-28 27 -3 195 -3 195 60 0 61 0 0 -59z m450 -136 l0 -105 -45 0 -45 0 0 105
0 105 45 0 45 0 0 -105z"/>
</g>
</svg>
