<?xml version="1.0" standalone="no"?>
<!DOCTYPE svg PUBLIC "-//W3C//DTD SVG 20010904//EN"
 "http://www.w3.org/TR/2001/REC-SVG-20010904/DTD/svg10.dtd">
<svg version="1.0" xmlns="http://www.w3.org/2000/svg"
 width="96.000000pt" height="96.000000pt" viewBox="0 0 96.000000 96.000000"
 preserveAspectRatio="xMidYMid meet">
<metadata>
Created by potrace 1.16, written by Peter Selinger 2001-2019
</metadata>
<g transform="translate(0.000000,96.000000) scale(0.100000,-0.100000)"
fill="#000000" stroke="none">
<path d="M92 869 c20 -59 20 -64 4 -114 -9 -28 -16 -55 -16 -58 0 -4 83 -7
185 -7 l185 0 0 -210 0 -210 -180 0 -180 0 0 -48 c0 -28 8 -64 20 -86 20 -41
19 -56 -6 -56 -9 0 -14 -11 -14 -35 0 -43 12 -44 80 -9 l50 26 50 -26 c27 -14
63 -26 80 -26 17 0 53 12 80 26 l50 26 50 -26 c27 -14 63 -26 80 -26 17 0 53
12 80 26 l50 26 50 -26 c68 -35 80 -34 80 9 0 24 -5 35 -14 35 -25 0 -26 15
-6 56 12 22 20 58 20 86 l0 48 -180 0 -180 0 0 30 0 30 178 2 177 3 0 26 c0
17 -62 120 -180 297 l-180 272 -217 0 -217 0 21 -61z m358 -59 l0 -60 -141 0
-141 0 7 28 c10 35 10 42 1 70 l-7 22 140 0 141 0 0 -60z m199 -227 c66 -101
121 -185 121 -188 0 -3 -58 -5 -130 -5 l-130 0 0 197 c0 113 4 193 9 188 5 -6
63 -92 130 -192z m151 -385 c0 -7 -9 -28 -20 -46 -16 -25 -26 -32 -52 -32 -18
0 -48 -9 -66 -20 -41 -25 -63 -25 -104 0 -43 26 -113 26 -156 0 -41 -25 -63
-25 -104 0 -18 11 -48 20 -66 20 -26 0 -36 7 -52 33 -11 17 -20 38 -20 45 0 9
71 12 320 12 249 0 320 -3 320 -12z"/>
</g>
</svg>
