<?xml version="1.0" standalone="no"?>
<!DOCTYPE svg PUBLIC "-//W3C//DTD SVG 20010904//EN"
 "http://www.w3.org/TR/2001/REC-SVG-20010904/DTD/svg10.dtd">
<svg version="1.0" xmlns="http://www.w3.org/2000/svg"
 width="96.000000pt" height="96.000000pt" viewBox="0 0 96.000000 96.000000"
 preserveAspectRatio="xMidYMid meet">
<metadata>
Created by potrace 1.16, written by Peter Selinger 2001-2019
</metadata>
<g transform="translate(0.000000,96.000000) scale(0.100000,-0.100000)"
fill="#000000" stroke="none">
<path d="M72 760 c-18 -11 -41 -34 -52 -52 -19 -31 -20 -51 -20 -300 0 -301
-4 -288 79 -288 31 0 41 -4 46 -20 3 -10 20 -31 36 -45 59 -49 172 -23 194 45
6 19 17 20 306 20 l299 0 0 60 0 60 -30 0 c-27 0 -30 -3 -30 -30 0 -27 -3 -30
-30 -30 l-30 0 0 248 c0 229 -2 249 -20 280 -11 18 -34 41 -52 52 -31 19 -51
20 -348 20 -297 0 -317 -1 -348 -20z m637 -49 c13 -3 34 -19 45 -34 20 -27 21
-43 24 -263 l3 -234 -45 0 -46 0 0 207 c0 256 7 243 -133 243 -145 0 -137 14
-137 -242 l0 -208 -29 0 c-21 0 -32 6 -36 20 -22 68 -135 94 -194 45 -16 -14
-33 -35 -36 -45 -4 -14 -15 -20 -36 -20 l-30 0 3 239 c3 236 3 240 27 265 13
14 33 27 45 29 35 7 549 5 575 -2z m-81 -338 l2 -193 -75 0 -75 0 0 188 c0
104 3 192 7 196 4 4 37 6 73 4 l65 -3 3 -192z"/>
<path d="M130 611 c-5 -11 -10 -60 -10 -110 0 -110 1 -111 129 -111 110 0 111
1 111 129 0 110 -1 111 -129 111 -79 0 -92 -2 -101 -19z"/>
</g>
</svg>
