<?xml version="1.0" standalone="no"?>
<!DOCTYPE svg PUBLIC "-//W3C//DTD SVG 20010904//EN"
 "http://www.w3.org/TR/2001/REC-SVG-20010904/DTD/svg10.dtd">
<svg version="1.0" xmlns="http://www.w3.org/2000/svg"
 width="96.000000pt" height="96.000000pt" viewBox="0 0 96.000000 96.000000"
 preserveAspectRatio="xMidYMid meet">
<metadata>
Created by potrace 1.16, written by Peter Selinger 2001-2019
</metadata>
<g transform="translate(0.000000,96.000000) scale(0.100000,-0.100000)"
fill="#000000" stroke="none">
<path d="M457 924 c-4 -4 -7 -58 -7 -120 l0 -113 -27 -3 c-25 -3 -28 -7 -31
-45 -2 -29 -8 -43 -17 -43 -9 0 -15 14 -17 43 l-3 42 -85 0 -85 0 -3 -98 c-3
-94 -2 -99 27 -141 l31 -44 2 -183 3 -184 235 0 235 0 3 184 2 183 31 44 c29
42 30 47 27 141 l-3 98 -85 0 -85 0 -3 -42 c-2 -29 -8 -43 -17 -43 -9 0 -15
14 -17 43 -3 38 -6 42 -30 45 -23 3 -28 8 -28 32 l0 29 73 3 72 3 0 85 0 85
-95 3 c-53 1 -99 0 -103 -4z m-155 -336 l3 -43 70 0 70 0 3 43 c3 39 5 42 32
42 27 0 29 -3 32 -42 l3 -43 70 0 70 0 3 43 c3 39 5 42 33 42 28 0 29 -1 29
-51 0 -40 -6 -60 -30 -94 -16 -24 -30 -55 -30 -69 0 -22 -4 -26 -30 -26 -27 0
-30 -3 -30 -30 0 -27 3 -30 30 -30 l30 0 0 -120 0 -120 -30 0 -30 0 0 86 c0
84 -1 87 -34 120 -50 50 -122 50 -172 0 -33 -33 -34 -36 -34 -120 l0 -86 -30
0 -30 0 0 176 0 175 -30 44 c-24 34 -30 54 -30 94 0 50 1 51 29 51 28 0 30 -3
33 -42z m213 -343 c22 -21 25 -33 25 -90 l0 -65 -60 0 -60 0 0 65 c0 57 3 69
25 90 13 14 29 25 35 25 6 0 22 -11 35 -25z"/>
</g>
</svg>
