<?xml version="1.0" standalone="no"?>
<!DOCTYPE svg PUBLIC "-//W3C//DTD SVG 20010904//EN"
 "http://www.w3.org/TR/2001/REC-SVG-20010904/DTD/svg10.dtd">
<svg version="1.0" xmlns="http://www.w3.org/2000/svg"
 width="96.000000pt" height="96.000000pt" viewBox="0 0 96.000000 96.000000"
 preserveAspectRatio="xMidYMid meet">
<metadata>
Created by potrace 1.16, written by Peter Selinger 2001-2019
</metadata>
<g transform="translate(0.000000,96.000000) scale(0.100000,-0.100000)"
fill="#000000" stroke="none">
<path d="M380 881 c-19 -11 -46 -31 -59 -45 -19 -20 -34 -26 -65 -26 -55 0
-115 -36 -143 -85 -43 -76 -22 -199 42 -241 23 -15 25 -23 25 -88 0 -47 5 -79
15 -92 10 -15 15 -55 17 -130 l3 -109 265 0 265 0 3 109 c2 75 7 115 17 130
10 13 15 45 15 92 0 65 2 73 25 88 64 42 85 165 42 241 -28 49 -88 85 -143 85
-31 0 -46 6 -65 26 -57 62 -185 84 -259 45z m172 -67 c14 -8 36 -27 48 -44 19
-27 26 -29 73 -28 34 1 61 -4 78 -15 72 -47 68 -157 -6 -197 -23 -12 -25 -18
-25 -91 0 -86 -12 -109 -57 -109 -24 0 -25 2 -19 45 3 25 9 65 12 90 l6 45
-35 0 c-34 0 -35 -1 -41 -45 -3 -25 -9 -65 -12 -90 -6 -42 -9 -45 -35 -45
l-29 0 0 90 0 90 -30 0 -30 0 0 -90 0 -90 -29 0 c-31 0 -27 -11 -48 138 -5 40
-7 42 -40 42 l-35 0 6 -48 c20 -145 21 -132 -7 -132 -45 0 -57 23 -57 109 0
73 -2 79 -25 91 -74 40 -78 150 -6 197 16 10 44 16 76 15 46 -1 53 2 80 34 50
59 118 72 187 38z m138 -619 l0 -75 -210 0 -210 0 0 75 0 75 210 0 210 0 0
-75z"/>
</g>
</svg>
