<?xml version="1.0" standalone="no"?>
<!DOCTYPE svg PUBLIC "-//W3C//DTD SVG 20010904//EN"
 "http://www.w3.org/TR/2001/REC-SVG-20010904/DTD/svg10.dtd">
<svg version="1.0" xmlns="http://www.w3.org/2000/svg"
 width="96.000000pt" height="96.000000pt" viewBox="0 0 96.000000 96.000000"
 preserveAspectRatio="xMidYMid meet">
<metadata>
Created by potrace 1.16, written by Peter Selinger 2001-2019
</metadata>
<g transform="translate(0.000000,96.000000) scale(0.100000,-0.100000)"
fill="#000000" stroke="none">
<path d="M7 803 c-4 -3 -7 -172 -7 -375 l0 -368 30 0 c27 0 30 3 30 30 l0 30
420 0 420 0 0 -30 c0 -27 3 -30 30 -30 l30 0 -2 373 -3 372 -471 3 c-259 1
-474 -1 -477 -5z m893 -338 l0 -285 -420 0 -420 0 0 285 0 285 420 0 420 0 0
-285z"/>
<path d="M150 465 l0 -225 30 0 30 0 0 225 0 225 -30 0 -30 0 0 -225z"/>
<path d="M300 465 l0 -225 30 0 30 0 0 225 0 225 -30 0 -30 0 0 -225z"/>
<path d="M450 465 l0 -225 30 0 30 0 0 225 0 225 -30 0 -30 0 0 -225z"/>
<path d="M600 465 l0 -225 30 0 30 0 0 225 0 225 -30 0 -30 0 0 -225z"/>
<path d="M750 465 l0 -225 30 0 30 0 0 225 0 225 -30 0 -30 0 0 -225z"/>
</g>
</svg>
