<?xml version="1.0" standalone="no"?>
<!DOCTYPE svg PUBLIC "-//W3C//DTD SVG 20010904//EN"
 "http://www.w3.org/TR/2001/REC-SVG-20010904/DTD/svg10.dtd">
<svg version="1.0" xmlns="http://www.w3.org/2000/svg"
 width="96.000000pt" height="96.000000pt" viewBox="0 0 96.000000 96.000000"
 preserveAspectRatio="xMidYMid meet">
<metadata>
Created by potrace 1.16, written by Peter Selinger 2001-2019
</metadata>
<g transform="translate(0.000000,96.000000) scale(0.100000,-0.100000)"
fill="#000000" stroke="none">
<path d="M174 870 c-8 -38 -46 -76 -84 -84 -25 -5 -30 -10 -30 -36 0 -27 3
-30 29 -30 16 0 41 4 55 10 14 5 26 6 26 1 0 -17 -51 -59 -80 -65 -25 -5 -30
-10 -30 -36 0 -27 3 -30 33 -30 17 0 44 7 59 14 l28 15 0 -45 c0 -42 -1 -44
-29 -44 -16 0 -43 -3 -60 -6 -27 -6 -31 -10 -31 -41 l0 -34 58 7 c89 13 181 6
255 -17 37 -12 67 -24 67 -28 0 -3 -18 -16 -41 -29 -22 -13 -59 -40 -81 -60
l-41 -37 -109 4 -108 3 0 -30 c0 -26 4 -30 38 -36 20 -3 57 -6 82 -6 90 -1
227 -37 382 -103 175 -74 246 -97 300 -97 36 0 38 2 38 30 0 24 -5 31 -27 35
-84 16 -130 32 -282 94 -91 38 -181 72 -199 76 -39 8 -36 13 32 59 129 86 292
112 449 71 26 -7 27 -6 27 29 0 25 -4 36 -15 36 -11 0 -15 12 -15 51 0 43 2
50 14 40 20 -17 63 37 44 54 -72 66 -221 175 -239 175 -11 0 -43 -18 -70 -41
-49 -41 -49 -41 -49 -15 0 22 -4 26 -30 26 -29 0 -30 -1 -30 -49 0 -44 -4 -52
-36 -78 l-35 -28 21 -28 c18 -22 25 -25 36 -16 12 9 14 4 14 -35 0 -25 -2 -46
-5 -46 -3 0 -23 9 -43 19 -47 24 -149 51 -191 51 -30 0 -31 1 -31 45 l0 46 30
-16 c16 -8 43 -15 60 -15 27 0 30 3 30 30 0 26 -5 31 -30 36 -30 6 -80 48 -80
66 0 6 8 7 18 2 9 -4 34 -9 55 -12 36 -4 37 -3 37 27 0 27 -4 32 -30 37 -38 8
-76 46 -84 84 -5 25 -10 30 -36 30 -26 0 -31 -5 -36 -30z m579 -216 l57 -46 0
-64 0 -64 -45 0 -45 0 0 45 c0 43 -1 45 -30 45 -29 0 -30 -2 -30 -45 0 -32 -4
-45 -14 -45 -7 0 -28 -3 -45 -6 l-31 -6 0 70 0 70 58 46 c31 25 59 46 62 46 3
0 31 -21 63 -46z"/>
</g>
</svg>
