<?xml version="1.0" standalone="no"?>
<!DOCTYPE svg PUBLIC "-//W3C//DTD SVG 20010904//EN"
 "http://www.w3.org/TR/2001/REC-SVG-20010904/DTD/svg10.dtd">
<svg version="1.0" xmlns="http://www.w3.org/2000/svg"
 width="96.000000pt" height="96.000000pt" viewBox="0 0 96.000000 96.000000"
 preserveAspectRatio="xMidYMid meet">
<metadata>
Created by potrace 1.16, written by Peter Selinger 2001-2019
</metadata>
<g transform="translate(0.000000,96.000000) scale(0.100000,-0.100000)"
fill="#000000" stroke="none">
<path d="M353 906 c-180 -67 -293 -231 -293 -426 0 -150 60 -273 178 -362 84
-64 164 -88 293 -88 l99 0 0 28 0 29 -98 6 c-116 7 -191 32 -260 86 -194 154
-194 448 0 602 69 54 144 79 260 86 l98 6 0 29 0 28 -107 -1 c-87 0 -120 -5
-170 -23z"/>
<path d="M726 887 c-20 -24 -42 -60 -51 -80 -19 -46 -19 -127 0 -153 12 -16
14 -68 15 -297 l0 -278 25 -24 c34 -35 96 -35 130 0 l25 24 0 278 c1 229 3
281 15 297 20 27 19 119 -1 159 -27 53 -84 117 -104 117 -10 0 -35 -19 -54
-43z m84 -521 c0 -129 -3 -241 -6 -250 -8 -21 -40 -21 -48 0 -3 9 -6 121 -6
250 l0 234 30 0 30 0 0 -234z"/>
<path d="M445 785 c-19 -18 -25 -35 -25 -65 0 -30 6 -47 25 -65 18 -19 35 -25
65 -25 56 0 90 34 90 90 0 56 -34 90 -90 90 -30 0 -47 -6 -65 -25z"/>
<path d="M235 665 c-35 -34 -35 -96 0 -130 18 -19 35 -25 65 -25 30 0 47 6 65
25 19 18 25 35 25 65 0 56 -34 90 -90 90 -30 0 -47 -6 -65 -25z"/>
<path d="M235 425 c-19 -18 -25 -35 -25 -65 0 -56 34 -90 90 -90 56 0 90 34
90 90 0 30 -6 47 -25 65 -18 19 -35 25 -65 25 -30 0 -47 -6 -65 -25z"/>
<path d="M445 305 c-19 -18 -25 -35 -25 -65 0 -30 6 -47 25 -65 18 -19 35 -25
65 -25 56 0 90 34 90 90 0 56 -34 90 -90 90 -30 0 -47 -6 -65 -25z"/>
</g>
</svg>
