<?xml version="1.0" standalone="no"?>
<!DOCTYPE svg PUBLIC "-//W3C//DTD SVG 20010904//EN"
 "http://www.w3.org/TR/2001/REC-SVG-20010904/DTD/svg10.dtd">
<svg version="1.0" xmlns="http://www.w3.org/2000/svg"
 width="96.000000pt" height="96.000000pt" viewBox="0 0 96.000000 96.000000"
 preserveAspectRatio="xMidYMid meet">
<metadata>
Created by potrace 1.16, written by Peter Selinger 2001-2019
</metadata>
<g transform="translate(0.000000,96.000000) scale(0.100000,-0.100000)"
fill="#000000" stroke="none">
<path d="M348 884 c-76 -23 -167 -92 -215 -162 -67 -99 -73 -131 -73 -403 0
-225 1 -239 19 -249 13 -6 160 -10 410 -10 383 0 390 0 401 21 8 13 10 101 8
267 -3 246 -3 247 -30 306 -24 51 -28 71 -28 152 l0 94 -30 0 c-28 0 -29 -2
-32 -54 l-3 -55 -58 39 c-32 22 -82 47 -110 55 -63 19 -196 18 -259 -1z m279
-84 c108 -49 180 -143 202 -265 6 -32 11 -139 11 -237 l0 -178 -105 0 -105 0
0 150 0 150 30 0 c27 0 30 3 30 30 l0 30 -210 0 -210 0 0 -30 c0 -27 3 -30 30
-30 l30 0 0 -150 0 -150 -106 0 -106 0 4 218 3 217 32 67 c52 110 136 178 253
204 73 16 142 8 217 -26z m-57 -530 l0 -150 -90 0 -90 0 0 150 0 150 90 0 90
0 0 -150z"/>
</g>
</svg>
