<?xml version="1.0" standalone="no"?>
<!DOCTYPE svg PUBLIC "-//W3C//DTD SVG 20010904//EN"
 "http://www.w3.org/TR/2001/REC-SVG-20010904/DTD/svg10.dtd">
<svg version="1.0" xmlns="http://www.w3.org/2000/svg"
 width="96.000000pt" height="96.000000pt" viewBox="0 0 96.000000 96.000000"
 preserveAspectRatio="xMidYMid meet">
<metadata>
Created by potrace 1.16, written by Peter Selinger 2001-2019
</metadata>
<g transform="translate(0.000000,96.000000) scale(0.100000,-0.100000)"
fill="#000000" stroke="none">
<path d="M655 905 c-35 -34 -35 -96 0 -130 34 -35 96 -35 130 0 35 34 35 96 0
130 -18 19 -35 25 -65 25 -30 0 -47 -6 -65 -25z"/>
<path d="M60 834 c0 -64 2 -68 39 -105 31 -31 46 -39 75 -39 34 0 36 -1 36
-35 0 -30 -10 -45 -69 -102 -97 -96 -111 -138 -111 -328 0 -132 2 -145 19
-155 13 -6 169 -10 440 -10 405 0 421 1 431 19 5 11 10 81 10 155 0 151 -15
212 -69 276 l-29 35 34 38 c31 34 34 42 34 102 l0 65 -64 0 c-49 0 -69 -5 -90
-21 l-26 -20 -26 20 c-21 16 -41 21 -90 21 l-64 0 0 -44 0 -43 -107 -6 c-60
-3 -120 -9 -135 -13 -25 -6 -28 -4 -28 20 0 23 4 26 36 26 29 0 44 8 75 39 37
37 39 41 39 105 l0 66 -64 0 c-49 0 -69 -5 -90 -21 l-26 -20 -26 20 c-21 16
-41 21 -90 21 l-64 0 0 -66z m533 -270 c18 -15 41 -24 63 -24 34 0 34 0 34
-45 0 -43 1 -45 30 -45 28 0 30 3 30 37 l0 37 31 -30 c39 -36 67 -91 78 -149
8 -41 7 -45 -11 -45 -10 0 -37 -10 -59 -22 l-39 -23 -39 23 c-22 12 -49 22
-60 22 -18 0 -21 6 -21 45 0 39 -6 52 -39 87 -36 40 -42 42 -104 46 -65 4 -66
4 -107 -35 -37 -34 -43 -46 -48 -91 -5 -52 -5 -52 -39 -52 -19 0 -52 -10 -73
-22 l-39 -23 -44 24 -44 24 8 43 c11 58 34 101 78 147 44 47 89 71 161 86 129
26 210 21 253 -15z m-53 -180 c23 -23 25 -32 28 -144 l4 -120 -92 0 -92 0 4
119 c3 102 6 122 23 141 41 45 81 46 125 4z m-226 -150 c12 -5 16 -20 16 -60
l0 -54 -120 0 -120 0 0 49 0 50 35 -15 c49 -20 84 -17 130 11 47 29 40 26 59
19z m439 -44 c17 0 50 11 74 25 l43 26 0 -61 0 -60 -120 0 -120 0 0 60 0 59
46 -24 c26 -14 61 -25 77 -25z"/>
</g>
</svg>
