<?xml version="1.0" standalone="no"?>
<!DOCTYPE svg PUBLIC "-//W3C//DTD SVG 20010904//EN"
 "http://www.w3.org/TR/2001/REC-SVG-20010904/DTD/svg10.dtd">
<svg version="1.0" xmlns="http://www.w3.org/2000/svg"
 width="96.000000pt" height="96.000000pt" viewBox="0 0 96.000000 96.000000"
 preserveAspectRatio="xMidYMid meet">
<metadata>
Created by potrace 1.16, written by Peter Selinger 2001-2019
</metadata>
<g transform="translate(0.000000,96.000000) scale(0.100000,-0.100000)"
fill="#000000" stroke="none">
<path d="M189 861 l-39 -39 0 -231 0 -231 -30 0 c-27 0 -30 -3 -30 -30 l0 -30
186 -2 186 -3 -22 -27 -21 -28 -165 0 -164 0 0 -30 0 -30 137 0 137 0 -29 -30
c-28 -30 -30 -30 -137 -30 l-108 0 0 -30 0 -30 418 2 417 3 0 145 0 145 -42 3
-43 3 0 61 c0 60 0 61 20 43 19 -17 20 -17 39 6 11 13 20 27 21 31 0 4 -18 22
-40 39 l-40 32 0 74 0 73 -30 0 c-29 0 -30 -2 -30 -45 0 -25 -3 -45 -6 -45 -3
0 -39 27 -79 60 -40 33 -83 60 -95 60 -12 0 -57 -27 -101 -60 l-79 -61 0 97 0
96 -39 39 c-36 36 -43 39 -96 39 -53 0 -60 -3 -96 -39z m148 -53 c16 -18 18
-44 21 -234 l3 -214 -75 0 -76 0 0 203 c0 215 5 242 49 263 28 14 54 8 78 -18z
m356 -208 l87 -71 0 -84 0 -85 -45 0 -44 0 -3 73 -3 72 -85 0 -85 0 -3 -72 -3
-73 -44 0 -45 0 0 93 0 92 86 63 c48 34 89 62 93 62 3 0 46 -32 94 -70z m-62
-317 c-6 -10 -41 -51 -78 -91 -65 -71 -70 -74 -108 -70 l-39 3 78 88 c73 82
80 87 117 87 35 0 39 -2 30 -17z m180 0 c-6 -10 -41 -51 -78 -91 -65 -71 -70
-74 -108 -70 l-39 3 78 88 c73 82 80 87 117 87 35 0 39 -2 30 -17z"/>
</g>
</svg>
