<?xml version="1.0" standalone="no"?>
<!DOCTYPE svg PUBLIC "-//W3C//DTD SVG 20010904//EN"
 "http://www.w3.org/TR/2001/REC-SVG-20010904/DTD/svg10.dtd">
<svg version="1.0" xmlns="http://www.w3.org/2000/svg"
 width="96.000000pt" height="96.000000pt" viewBox="0 0 96.000000 96.000000"
 preserveAspectRatio="xMidYMid meet">
<metadata>
Created by potrace 1.16, written by Peter Selinger 2001-2019
</metadata>
<g transform="translate(0.000000,96.000000) scale(0.100000,-0.100000)"
fill="#000000" stroke="none">
<path d="M145 914 c-48 -26 -84 -64 -100 -108 -13 -35 -15 -92 -13 -361 l3
-320 28 -3 c25 -3 27 -7 27 -48 0 -42 1 -44 30 -44 29 0 30 2 30 45 l0 45 330
0 330 0 0 -45 c0 -43 1 -45 30 -45 29 0 30 2 30 44 0 41 2 45 28 48 l27 3 0
177 0 176 -30 43 c-17 24 -50 57 -73 73 -39 28 -52 31 -147 36 -96 5 -108 8
-131 31 -18 18 -27 42 -33 81 -9 70 -36 115 -90 153 -40 28 -49 30 -144 33
-79 2 -109 -2 -132 -14z m228 -71 c42 -25 66 -69 74 -134 5 -43 14 -61 43 -93
l37 -39 105 -8 c108 -7 135 -16 176 -53 25 -22 52 -67 52 -86 0 -7 -123 -10
-385 -10 l-385 0 0 148 c0 159 9 208 43 247 47 55 169 69 240 28z m-223 -543
l0 -60 30 0 30 0 0 60 0 60 30 0 30 0 0 -60 0 -60 30 0 30 0 0 60 0 60 30 0
30 0 0 -60 0 -60 30 0 30 0 0 60 0 60 30 0 30 0 0 -60 0 -60 30 0 30 0 0 60 0
60 30 0 30 0 0 -60 0 -60 30 0 30 0 0 60 0 60 30 0 30 0 0 -60 0 -60 30 0 30
0 0 60 0 60 30 0 30 0 0 -90 0 -90 -390 0 -390 0 0 90 0 90 30 0 30 0 0 -60z"/>
</g>
</svg>
