<?xml version="1.0" standalone="no"?>
<!DOCTYPE svg PUBLIC "-//W3C//DTD SVG 20010904//EN"
 "http://www.w3.org/TR/2001/REC-SVG-20010904/DTD/svg10.dtd">
<svg version="1.0" xmlns="http://www.w3.org/2000/svg"
 width="97.000000pt" height="96.000000pt" viewBox="0 0 97.000000 96.000000"
 preserveAspectRatio="xMidYMid meet">
<metadata>
Created by potrace 1.16, written by Peter Selinger 2001-2019
</metadata>
<g transform="translate(0.000000,96.000000) scale(0.100000,-0.100000)"
fill="#000000" stroke="none">
<path d="M270 695 c-192 -192 -194 -194 -175 -215 24 -26 33 -25 67 7 l28 27
0 -122 0 -122 -46 0 -47 0 6 -56 c3 -30 15 -71 26 -89 l20 -35 -24 -6 c-20 -5
-25 -12 -25 -40 0 -42 15 -44 84 -10 52 25 54 25 113 -5 49 -25 88 -24 147 5
52 25 54 25 113 -5 49 -25 88 -24 147 5 52 25 54 25 113 -5 57 -29 73 -25 73
15 0 27 -5 35 -24 40 l-24 6 21 41 c11 23 22 63 25 90 l5 49 -47 0 -46 0 0
122 0 122 28 -27 c34 -32 43 -33 67 -7 18 20 18 22 -38 78 l-57 58 0 82 0 82
-35 0 -35 0 0 -47 0 -47 -104 102 c-83 82 -109 102 -132 102 -25 0 -60 -31
-224 -195z m460 -267 l0 -158 -55 0 -55 0 0 72 c0 101 -8 108 -126 108 -114 0
-124 -9 -124 -112 l0 -68 -55 0 -55 0 0 157 0 158 117 117 118 118 117 -117
118 -118 0 -157z m80 -242 c-20 -53 -34 -66 -70 -66 -19 0 -48 -9 -65 -20 -38
-25 -62 -25 -100 0 -20 13 -47 20 -80 20 -33 0 -60 -7 -80 -20 -16 -11 -39
-20 -50 -20 -11 0 -33 9 -50 20 -16 11 -46 20 -65 20 -36 0 -50 13 -70 66
l-10 24 325 0 325 0 -10 -24z"/>
<path d="M426 659 c-33 -39 -33 -79 0 -118 21 -26 33 -31 69 -31 36 0 48 5 69
31 15 17 26 43 26 59 0 16 -11 42 -26 59 -21 26 -33 31 -69 31 -36 0 -48 -5
-69 -31z"/>
</g>
</svg>
