<?xml version="1.0" standalone="no"?>
<!DOCTYPE svg PUBLIC "-//W3C//DTD SVG 20010904//EN"
 "http://www.w3.org/TR/2001/REC-SVG-20010904/DTD/svg10.dtd">
<svg version="1.0" xmlns="http://www.w3.org/2000/svg"
 width="97.000000pt" height="96.000000pt" viewBox="0 0 97.000000 96.000000"
 preserveAspectRatio="xMidYMid meet">
<metadata>
Created by potrace 1.16, written by Peter Selinger 2001-2019
</metadata>
<g transform="translate(0.000000,96.000000) scale(0.100000,-0.100000)"
fill="#000000" stroke="none">
<path d="M483 898 c-6 -7 -16 -37 -23 -66 -6 -28 -15 -54 -19 -57 -4 -2 -24 1
-44 7 -43 13 -42 13 -52 -29 -5 -26 -3 -33 8 -33 12 0 13 -7 5 -40 -7 -27 -15
-39 -26 -38 -21 4 -36 -51 -18 -66 18 -15 2 -72 -23 -79 -23 -6 -34 -54 -15
-65 19 -11 -1 -86 -22 -78 -9 3 -16 -5 -22 -27 -7 -24 -5 -33 6 -35 9 -3 12
-11 8 -25 -4 -12 -13 -50 -22 -85 l-16 -62 -69 0 -69 0 0 -30 0 -30 425 0 425
0 0 30 0 30 -134 0 -133 0 5 25 c3 15 11 25 22 25 23 0 37 50 18 65 -18 13 0
84 19 78 7 -3 17 7 23 22 13 35 13 45 -4 45 -11 0 -12 8 -4 40 6 23 16 40 24
40 22 0 39 53 21 64 -19 12 -2 87 18 80 15 -6 20 0 29 37 5 25 3 28 -38 38
l-43 11 15 65 c12 48 13 68 5 76 -9 9 -241 78 -264 79 -4 0 -11 -6 -16 -12z
m-25 -669 c64 -17 122 -34 128 -38 7 -4 8 -17 2 -38 -7 -26 -14 -33 -33 -33
-18 0 -25 5 -25 19 0 12 -9 21 -25 25 -32 8 -45 1 -45 -25 0 -14 -7 -19 -29
-19 -28 0 -29 1 -20 32 10 37 11 36 -29 44 -29 6 -31 4 -37 -30 -6 -31 -11
-36 -35 -36 l-27 0 15 65 c10 40 21 65 29 65 8 0 67 -14 131 -31z"/>
</g>
</svg>
