<?xml version="1.0" standalone="no"?>
<!DOCTYPE svg PUBLIC "-//W3C//DTD SVG 20010904//EN"
 "http://www.w3.org/TR/2001/REC-SVG-20010904/DTD/svg10.dtd">
<svg version="1.0" xmlns="http://www.w3.org/2000/svg"
 width="96.000000pt" height="96.000000pt" viewBox="0 0 96.000000 96.000000"
 preserveAspectRatio="xMidYMid meet">
<metadata>
Created by potrace 1.16, written by Peter Selinger 2001-2019
</metadata>
<g transform="translate(0.000000,96.000000) scale(0.100000,-0.100000)"
fill="#000000" stroke="none">
<path d="M711 861 c-13 -45 -52 -81 -87 -81 -21 0 -24 -5 -24 -35 0 -31 3 -35
25 -35 14 0 41 7 60 14 32 14 35 14 35 -3 0 -31 -39 -70 -81 -81 -35 -10 -39
-14 -39 -42 0 -30 1 -31 43 -25 23 2 50 8 60 12 15 6 17 0 17 -64 l0 -71 -90
0 -90 0 0 130 0 129 -102 90 c-88 77 -108 90 -138 90 -30 0 -50 -13 -137 -90
l-103 -90 0 -159 0 -160 420 0 420 0 0 30 0 30 -60 0 -60 0 0 71 c0 64 2 70
18 64 9 -4 36 -10 60 -12 41 -6 42 -5 42 25 0 28 -4 32 -38 42 -44 11 -68 33
-77 72 l-7 28 36 -15 c19 -8 47 -15 61 -15 22 0 25 4 25 35 0 30 -3 35 -24 35
-35 0 -74 36 -86 81 -9 34 -15 39 -39 39 -24 0 -30 -6 -40 -39z m-318 -116
l87 -76 0 -109 0 -110 -45 0 -44 0 -3 88 -3 87 -85 0 -85 0 -3 -87 -3 -88 -44
0 -45 0 0 109 0 109 88 76 c48 41 89 76 92 76 3 0 45 -34 93 -75z"/>
<path d="M108 302 c-42 -24 -48 -31 -48 -61 0 -31 2 -33 28 -27 15 4 40 16 56
28 39 28 75 27 115 -3 45 -33 117 -33 162 0 18 13 45 24 59 24 14 0 41 -11 59
-24 45 -33 117 -33 162 0 40 30 76 31 115 3 16 -12 41 -24 57 -28 26 -6 27 -4
27 30 0 20 -4 36 -10 36 -5 0 -26 11 -46 25 -50 34 -114 34 -169 0 -51 -31
-65 -31 -111 0 -50 34 -114 34 -169 0 -51 -31 -65 -31 -111 0 -51 34 -113 33
-176 -3z"/>
<path d="M108 152 c-42 -24 -48 -31 -48 -61 0 -31 2 -33 28 -27 15 4 40 16 56
28 39 28 75 27 115 -3 45 -33 117 -33 162 0 41 31 77 31 118 0 24 -18 46 -24
81 -24 35 0 57 6 81 24 40 30 76 31 115 3 16 -12 41 -24 57 -28 26 -6 27 -4
27 30 0 20 -4 36 -10 36 -5 0 -26 11 -46 25 -50 34 -114 34 -169 0 -51 -31
-65 -31 -111 0 -50 34 -114 34 -169 0 -51 -31 -65 -31 -111 0 -51 34 -113 33
-176 -3z"/>
</g>
</svg>
