<?xml version="1.0" standalone="no"?>
<!DOCTYPE svg PUBLIC "-//W3C//DTD SVG 20010904//EN"
 "http://www.w3.org/TR/2001/REC-SVG-20010904/DTD/svg10.dtd">
<svg version="1.0" xmlns="http://www.w3.org/2000/svg"
 width="96.000000pt" height="96.000000pt" viewBox="0 0 96.000000 96.000000"
 preserveAspectRatio="xMidYMid meet">
<metadata>
Created by potrace 1.16, written by Peter Selinger 2001-2019
</metadata>
<g transform="translate(0.000000,96.000000) scale(0.100000,-0.100000)"
fill="#000000" stroke="none">
<path d="M204 913 c-26 -79 -42 -98 -101 -118 -32 -11 -39 -18 -41 -44 -3 -29
-1 -31 30 -31 18 0 52 11 76 25 l44 25 -7 -33 c-16 -70 -42 -101 -102 -122
-32 -11 -39 -18 -41 -44 -3 -29 -1 -31 30 -31 18 0 52 11 76 25 l42 24 0 -82
0 -82 -45 -25 c-44 -24 -47 -24 -75 -8 l-30 17 0 -145 0 -145 39 -42 40 -42
335 -3 336 -3 42 40 43 40 3 150 3 151 -30 -18 c-30 -16 -32 -16 -71 6 -51 29
-109 29 -161 -1 l-39 -22 -39 23 c-52 29 -110 29 -161 0 l-39 -23 -46 25 -45
25 0 81 0 81 47 -23 c25 -13 59 -24 75 -24 27 0 29 3 26 31 -2 26 -9 33 -41
44 -60 21 -86 52 -101 121 l-7 32 47 -24 c26 -13 60 -24 76 -24 27 0 29 3 26
31 -2 26 -9 33 -42 44 -50 17 -74 41 -91 91 -11 33 -18 40 -44 42 -23 2 -33
-1 -37 -15z m82 -578 c59 -32 96 -32 150 0 l43 25 47 -25 c59 -32 96 -32 150
0 l43 25 47 -25 c26 -14 53 -25 60 -25 10 0 14 -13 14 -40 0 -46 -4 -47 -45
-20 -41 27 -106 26 -156 -3 l-39 -22 -39 23 c-24 13 -57 22 -81 22 -24 0 -57
-9 -81 -22 l-39 -23 -39 23 c-50 28 -115 29 -156 2 -41 -27 -45 -26 -45 20 0
31 4 40 18 40 9 0 35 11 57 25 22 13 41 25 42 25 1 0 23 -11 49 -25z m0 -150
c59 -32 96 -32 150 0 l43 25 47 -25 c59 -32 96 -32 150 0 l43 25 45 -24 c25
-13 51 -26 58 -29 9 -3 4 -14 -15 -33 l-27 -29 -300 0 -300 0 -27 27 c-15 15
-25 29 -22 30 6 4 104 57 106 57 1 1 23 -10 49 -24z"/>
<path d="M634 746 c-30 -30 -34 -40 -34 -86 0 -75 45 -120 120 -120 46 0 56 4
86 34 30 30 34 40 34 86 0 46 -4 56 -34 86 -30 30 -40 34 -86 34 -46 0 -56 -4
-86 -34z"/>
</g>
</svg>
