<?xml version="1.0" standalone="no"?>
<!DOCTYPE svg PUBLIC "-//W3C//DTD SVG 20010904//EN"
 "http://www.w3.org/TR/2001/REC-SVG-20010904/DTD/svg10.dtd">
<svg version="1.0" xmlns="http://www.w3.org/2000/svg"
 width="96.000000pt" height="96.000000pt" viewBox="0 0 96.000000 96.000000"
 preserveAspectRatio="xMidYMid meet">
<metadata>
Created by potrace 1.16, written by Peter Selinger 2001-2019
</metadata>
<g transform="translate(0.000000,96.000000) scale(0.100000,-0.100000)"
fill="#000000" stroke="none">
<path d="M120 855 l0 -44 -57 -3 -58 -3 0 -370 0 -370 475 0 475 0 0 370 0
370 -57 3 -58 3 0 44 c0 43 -1 45 -30 45 -29 0 -30 -2 -30 -45 l0 -45 -300 0
-300 0 0 45 c0 43 -1 45 -30 45 -29 0 -30 -2 -30 -45z m274 -117 c-4 -7 -39
-48 -77 -90 l-69 -78 -94 0 -94 0 0 90 0 90 171 0 c133 0 169 -3 163 -12z
m506 -78 l0 -90 -94 0 -94 0 -63 73 c-36 39 -70 80 -78 90 -13 16 -4 17 158
17 l171 0 0 -90z m-327 -40 l87 -99 0 -201 0 -200 -30 0 -30 0 0 101 0 101
-34 34 c-30 30 -40 34 -86 34 -46 0 -56 -4 -86 -34 l-34 -34 0 -101 0 -101
-30 0 -30 0 0 201 0 200 87 100 c47 54 89 99 92 99 4 0 46 -45 94 -100z m-333
-240 l0 -130 -26 10 c-33 13 -110 13 -135 0 -18 -10 -19 -6 -19 120 l0 130 90
0 90 0 0 -130z m660 0 l0 -130 -26 10 c-33 13 -110 13 -135 0 -18 -10 -19 -6
-19 120 l0 130 90 0 90 0 0 -130z m-385 -75 c22 -22 25 -32 25 -105 l0 -80
-60 0 -60 0 0 80 c0 73 3 83 25 105 13 14 29 25 35 25 6 0 22 -11 35 -25z"/>
</g>
</svg>
