<?xml version="1.0" standalone="no"?>
<!DOCTYPE svg PUBLIC "-//W3C//DTD SVG 20010904//EN"
 "http://www.w3.org/TR/2001/REC-SVG-20010904/DTD/svg10.dtd">
<svg version="1.0" xmlns="http://www.w3.org/2000/svg"
 width="97.000000pt" height="96.000000pt" viewBox="0 0 97.000000 96.000000"
 preserveAspectRatio="xMidYMid meet">
<metadata>
Created by potrace 1.16, written by Peter Selinger 2001-2019
</metadata>
<g transform="translate(0.000000,96.000000) scale(0.100000,-0.100000)"
fill="#000000" stroke="none">
<path d="M190 876 c0 -35 -36 -74 -81 -87 -34 -11 -39 -16 -39 -42 0 -28 1
-29 43 -25 23 3 50 8 60 12 13 6 17 3 17 -12 0 -31 -38 -71 -81 -83 -34 -11
-39 -16 -39 -42 0 -28 1 -29 43 -25 23 3 50 8 60 12 16 8 17 -1 17 -108 l0
-116 -60 0 -60 0 0 -30 0 -30 60 0 60 0 0 -45 c0 -45 0 -45 35 -45 35 0 35 0
35 45 l0 45 299 0 c253 0 300 -2 311 -15 10 -12 10 -18 0 -30 -10 -12 -47 -15
-209 -15 -171 0 -199 -3 -217 -18 -42 -34 -56 -90 -33 -135 27 -53 42 -57 222
-57 l167 0 0 30 0 30 -149 0 c-123 0 -152 3 -165 16 -18 18 -20 32 -6 54 8 12
45 16 214 18 l205 3 26 30 c32 39 32 79 -1 118 l-26 31 -259 2 -259 3 88 133
89 132 32 -45 c46 -64 68 -61 123 15 40 55 46 59 83 60 36 0 43 -4 65 -40 14
-22 28 -40 31 -40 4 0 17 8 30 19 l23 18 -79 122 c-89 138 -112 161 -164 161
-50 0 -58 -10 -247 -297 -107 -163 -165 -243 -176 -243 -16 0 -18 12 -18 116
0 107 1 116 18 108 9 -4 36 -9 60 -12 41 -4 42 -3 42 25 0 26 -5 31 -39 42
-43 12 -81 52 -81 83 0 15 4 18 18 12 9 -4 36 -9 60 -12 41 -4 42 -3 42 25 0
26 -5 31 -39 42 -45 13 -81 52 -81 87 0 21 -5 24 -35 24 -30 0 -35 -3 -35 -24z
m565 -98 l35 -53 -40 -3 c-34 -3 -44 -9 -71 -48 -18 -24 -33 -44 -34 -44 -1 0
-11 14 -24 31 l-23 31 46 69 c25 38 53 69 61 69 8 0 30 -24 50 -52z"/>
</g>
</svg>
