<?xml version="1.0" standalone="no"?>
<!DOCTYPE svg PUBLIC "-//W3C//DTD SVG 20010904//EN"
 "http://www.w3.org/TR/2001/REC-SVG-20010904/DTD/svg10.dtd">
<svg version="1.0" xmlns="http://www.w3.org/2000/svg"
 width="96.000000pt" height="96.000000pt" viewBox="0 0 96.000000 96.000000"
 preserveAspectRatio="xMidYMid meet">
<metadata>
Created by potrace 1.16, written by Peter Selinger 2001-2019
</metadata>
<g transform="translate(0.000000,96.000000) scale(0.100000,-0.100000)"
fill="#000000" stroke="none">
<path d="M230 908 c-75 -29 -150 -106 -178 -181 -66 -175 17 -374 181 -435 62
-24 175 -30 221 -12 l26 10 0 -70 0 -70 83 0 83 0 59 -60 59 -60 83 0 83 0 0
83 0 82 -131 130 c-116 116 -130 133 -125 158 5 25 3 27 -29 27 -28 0 -37 -6
-49 -28 l-15 -29 145 -144 c134 -134 144 -146 144 -181 0 -37 -1 -38 -38 -38
-33 0 -45 8 -97 60 l-59 60 -68 0 -68 0 0 67 c0 84 -17 110 -60 88 -153 -79
-342 13 -379 186 -39 182 140 352 322 304 73 -19 160 -20 155 -2 -3 6 -31 26
-63 42 -79 40 -201 46 -285 13z"/>
<path d="M655 890 c-9 -53 -52 -96 -105 -105 -36 -6 -40 -10 -40 -35 0 -25 4
-29 40 -35 25 -4 52 -18 69 -36 18 -17 32 -44 36 -69 6 -36 10 -40 35 -40 25
0 29 4 35 40 9 53 52 96 105 105 36 6 40 10 40 35 0 25 -4 29 -40 35 -53 9
-96 52 -105 105 -6 36 -10 40 -35 40 -25 0 -29 -4 -35 -40z"/>
<path d="M235 725 c-35 -34 -35 -96 0 -130 18 -19 35 -25 65 -25 30 0 47 6 65
25 19 18 25 35 25 65 0 56 -34 90 -90 90 -30 0 -47 -6 -65 -25z"/>
</g>
</svg>
