<?xml version="1.0" standalone="no"?>
<!DOCTYPE svg PUBLIC "-//W3C//DTD SVG 20010904//EN"
 "http://www.w3.org/TR/2001/REC-SVG-20010904/DTD/svg10.dtd">
<svg version="1.0" xmlns="http://www.w3.org/2000/svg"
 width="97.000000pt" height="96.000000pt" viewBox="0 0 97.000000 96.000000"
 preserveAspectRatio="xMidYMid meet">
<metadata>
Created by potrace 1.16, written by Peter Selinger 2001-2019
</metadata>
<g transform="translate(0.000000,96.000000) scale(0.100000,-0.100000)"
fill="#000000" stroke="none">
<path d="M197 682 c-103 -103 -187 -194 -187 -202 0 -24 372 -390 395 -390 24
0 215 187 215 210 0 8 -37 52 -82 97 l-83 83 83 83 c45 45 82 89 82 97 0 23
-192 210 -215 210 -13 0 -90 -70 -208 -188z m273 -87 l-65 -65 -65 65 -64 65
64 65 65 65 65 -65 65 -65 -65 -65z m-180 -180 l-65 -65 -65 65 -64 65 64 65
65 65 65 -65 65 -65 -65 -65z m180 -180 l-65 -65 -65 65 -64 65 64 65 65 65
65 -65 65 -65 -65 -65z"/>
<path d="M647 592 c-53 -53 -97 -104 -97 -112 0 -23 192 -210 215 -210 31 0
205 179 205 210 0 32 -175 210 -205 210 -12 0 -59 -39 -118 -98z m183 -177
l-65 -65 -65 65 -64 65 64 65 65 65 65 -65 65 -65 -65 -65z"/>
</g>
</svg>
