<?xml version="1.0" standalone="no"?>
<!DOCTYPE svg PUBLIC "-//W3C//DTD SVG 20010904//EN"
 "http://www.w3.org/TR/2001/REC-SVG-20010904/DTD/svg10.dtd">
<svg version="1.0" xmlns="http://www.w3.org/2000/svg"
 width="96.000000pt" height="96.000000pt" viewBox="0 0 96.000000 96.000000"
 preserveAspectRatio="xMidYMid meet">
<metadata>
Created by potrace 1.16, written by Peter Selinger 2001-2019
</metadata>
<g transform="translate(0.000000,96.000000) scale(0.100000,-0.100000)"
fill="#000000" stroke="none">
<path d="M382 827 c-72 -23 -171 -144 -172 -212 0 -13 -30 -42 -85 -84 -46
-36 -87 -71 -89 -77 -4 -10 91 -97 147 -135 5 -4 1 -29 -9 -58 -17 -47 -21
-51 -51 -51 -30 0 -33 -3 -33 -30 0 -30 0 -30 59 -30 l58 0 28 75 27 75 94 0
94 0 0 -75 0 -75 30 0 30 0 0 75 0 76 106 -3 107 -3 26 -70 27 -70 62 -3 62
-3 0 31 c0 28 -3 30 -34 30 -33 0 -36 3 -55 55 -12 31 -21 59 -21 63 1 4 30
29 65 57 36 27 65 57 65 65 0 9 -38 44 -85 80 -47 36 -85 71 -85 79 0 70 -74
170 -155 207 -55 26 -152 31 -213 11z m174 -68 c51 -15 124 -104 124 -150 0
-5 -83 -9 -200 -9 -131 0 -200 4 -200 10 0 25 30 78 63 109 56 53 125 66 213
40z m207 -261 c31 -24 57 -45 57 -48 0 -3 -24 -24 -54 -48 l-54 -42 -235 0
-234 0 -52 42 c-28 23 -51 44 -51 47 0 3 26 25 57 49 l56 42 227 0 227 0 56
-42z"/>
</g>
</svg>
