<?xml version="1.0" standalone="no"?>
<!DOCTYPE svg PUBLIC "-//W3C//DTD SVG 20010904//EN"
 "http://www.w3.org/TR/2001/REC-SVG-20010904/DTD/svg10.dtd">
<svg version="1.0" xmlns="http://www.w3.org/2000/svg"
 width="96.000000pt" height="96.000000pt" viewBox="0 0 96.000000 96.000000"
 preserveAspectRatio="xMidYMid meet">
<metadata>
Created by potrace 1.16, written by Peter Selinger 2001-2019
</metadata>
<g transform="translate(0.000000,96.000000) scale(0.100000,-0.100000)"
fill="#000000" stroke="none">
<path d="M246 909 c-50 -39 -60 -73 -46 -157 14 -91 9 -126 -38 -222 -34 -70
-36 -82 -36 -170 0 -84 3 -104 32 -175 51 -128 47 -125 157 -125 89 0 95 1
110 24 l16 25 47 -25 c41 -22 57 -25 124 -22 66 3 82 7 119 33 24 17 57 50 74
74 28 40 30 49 30 131 0 82 -2 91 -30 131 -17 24 -50 57 -74 74 -39 27 -50 30
-124 30 -45 0 -94 -4 -108 -8 -24 -8 -28 -5 -50 40 -20 41 -23 60 -20 128 7
177 9 164 -32 201 -30 28 -45 34 -81 34 -29 0 -52 -7 -70 -21z m162 -417 c48
-111 46 -166 -9 -297 l-31 -75 -53 0 -53 0 -31 75 c-55 132 -57 200 -10 299
l23 46 72 0 72 0 20 -48z m272 -37 c57 -29 92 -88 92 -155 0 -50 -12 -81 -46
-118 -60 -67 -170 -74 -237 -15 -15 13 -15 19 3 76 14 44 19 82 16 134 -3 70
-2 73 22 82 55 21 102 20 150 -4z"/>
</g>
</svg>
