<?xml version="1.0" standalone="no"?>
<!DOCTYPE svg PUBLIC "-//W3C//DTD SVG 20010904//EN"
 "http://www.w3.org/TR/2001/REC-SVG-20010904/DTD/svg10.dtd">
<svg version="1.0" xmlns="http://www.w3.org/2000/svg"
 width="96.000000pt" height="96.000000pt" viewBox="0 0 96.000000 96.000000"
 preserveAspectRatio="xMidYMid meet">
<metadata>
Created by potrace 1.16, written by Peter Selinger 2001-2019
</metadata>
<g transform="translate(0.000000,96.000000) scale(0.100000,-0.100000)"
fill="#000000" stroke="none">
<path d="M40 761 c-5 -11 -10 -82 -10 -158 -1 -105 -4 -143 -15 -157 -12 -16
-15 -57 -15 -203 l0 -183 30 0 c29 0 30 2 30 45 l0 45 240 0 240 0 0 -45 c0
-43 1 -45 30 -45 29 0 30 2 30 45 l0 45 150 0 150 0 0 -45 c0 -43 1 -45 30
-45 l30 0 -2 193 -3 192 -87 3 -88 3 0 44 0 44 58 3 c51 3 57 6 60 26 4 24
-43 178 -61 200 -7 9 -34 12 -91 10 l-81 -3 -34 -101 c-19 -55 -32 -108 -28
-117 5 -13 19 -17 62 -17 l55 0 0 -45 0 -46 -72 3 -73 3 -3 150 c-2 127 -5
152 -19 163 -12 9 -81 12 -260 12 -229 0 -243 -1 -253 -19z m470 -161 l0 -120
-30 0 -30 0 0 65 c0 53 -3 66 -19 75 -11 5 -74 10 -140 10 -139 0 -141 -1
-141 -94 0 -56 0 -56 -30 -56 l-30 0 0 120 0 120 210 0 210 0 0 -120z m-120
-75 l0 -45 -90 0 -90 0 0 45 0 45 90 0 90 0 0 -45z m134 -121 c12 -12 16 -37
16 -105 l0 -89 -240 0 -240 0 0 89 c0 68 4 93 16 105 23 24 425 24 448 0z
m376 -104 l0 -90 -150 0 -150 0 0 90 0 90 150 0 150 0 0 -90z"/>
</g>
</svg>
