<?xml version="1.0" standalone="no"?>
<!DOCTYPE svg PUBLIC "-//W3C//DTD SVG 20010904//EN"
 "http://www.w3.org/TR/2001/REC-SVG-20010904/DTD/svg10.dtd">
<svg version="1.0" xmlns="http://www.w3.org/2000/svg"
 width="96.000000pt" height="96.000000pt" viewBox="0 0 96.000000 96.000000"
 preserveAspectRatio="xMidYMid meet">
<metadata>
Created by potrace 1.16, written by Peter Selinger 2001-2019
</metadata>
<g transform="translate(0.000000,96.000000) scale(0.100000,-0.100000)"
fill="#000000" stroke="none">
<path d="M684 896 c-23 -23 -34 -43 -34 -63 l0 -29 -67 4 c-84 4 -143 -23
-188 -85 -16 -23 -34 -42 -39 -42 -5 -1 -71 22 -148 51 -76 28 -140 49 -143
46 -3 -2 -7 -18 -10 -34 l-6 -29 240 -89 c133 -49 243 -87 246 -84 3 2 7 18
11 34 5 28 3 30 -51 48 -31 11 -58 23 -60 27 -7 11 34 58 65 74 41 21 109 19
145 -5 l30 -20 22 38 c13 20 23 51 23 68 0 37 16 54 52 54 18 0 33 -8 44 -25
15 -23 15 -27 0 -50 -9 -14 -21 -25 -27 -25 -11 0 -59 -49 -59 -60 0 -4 11
-15 25 -24 25 -17 27 -16 75 24 56 47 74 90 59 144 -15 54 -60 86 -121 86 -44
0 -54 -4 -84 -34z"/>
<path d="M645 583 c-25 -37 -45 -77 -45 -88 0 -11 22 -40 51 -67 l51 -47 -32
-43 c-17 -24 -48 -66 -68 -95 -40 -56 -48 -60 -77 -40 -17 13 -15 18 34 81 53
70 55 75 43 91 -21 29 -142 125 -165 130 -24 7 -27 5 -27 -21 0 -21 14 -41 56
-80 l56 -52 -42 -56 c-23 -31 -48 -56 -54 -56 -7 0 -86 27 -176 60 -90 33
-169 60 -177 60 -15 0 -29 -48 -17 -59 10 -9 593 -223 688 -253 73 -23 124
-12 174 38 38 38 38 54 -1 67 -23 7 -31 5 -47 -16 -31 -39 -60 -40 -154 -6
l-86 31 22 31 c12 18 42 58 65 91 59 80 60 124 2 177 -36 33 -39 40 -29 59 11
21 11 21 32 -6 27 -34 92 -63 141 -64 34 0 37 2 37 29 0 31 -14 41 -57 41 -29
0 -83 50 -83 77 0 16 -45 53 -64 53 -3 0 -26 -30 -51 -67z"/>
</g>
</svg>
