<?xml version="1.0" standalone="no"?>
<!DOCTYPE svg PUBLIC "-//W3C//DTD SVG 20010904//EN"
 "http://www.w3.org/TR/2001/REC-SVG-20010904/DTD/svg10.dtd">
<svg version="1.0" xmlns="http://www.w3.org/2000/svg"
 width="96.000000pt" height="96.000000pt" viewBox="0 0 96.000000 96.000000"
 preserveAspectRatio="xMidYMid meet">
<metadata>
Created by potrace 1.16, written by Peter Selinger 2001-2019
</metadata>
<g transform="translate(0.000000,96.000000) scale(0.100000,-0.100000)"
fill="#000000" stroke="none">
<path d="M541 848 l-32 -83 3 -365 3 -365 85 0 85 0 3 365 3 365 -32 83 c-29
75 -34 82 -59 82 -25 0 -30 -7 -59 -82z"/>
<path d="M781 848 l-32 -83 3 -365 3 -365 85 0 85 0 3 365 3 365 -32 83 c-29
75 -34 82 -59 82 -25 0 -30 -7 -59 -82z"/>
<path d="M286 861 c-3 -4 -14 -45 -26 -91 -12 -47 -25 -89 -29 -93 -5 -5 -19
20 -31 55 -50 133 -46 128 -80 117 -16 -6 -30 -15 -30 -19 0 -5 24 -72 54
-149 l54 -141 -45 -169 -45 -169 -29 8 c-27 8 -29 6 -37 -23 -8 -29 -6 -33 17
-41 14 -5 27 -10 28 -10 1 -1 -2 -19 -8 -40 -12 -42 -6 -53 31 -58 21 -3 26 3
36 37 12 41 14 42 50 31 18 -6 22 -1 28 26 6 33 -4 48 -35 48 -14 0 -12 16 15
114 17 63 34 117 36 119 3 3 24 -44 47 -105 39 -104 41 -110 22 -115 -20 -6
-22 -14 -13 -51 6 -19 11 -22 35 -17 16 4 29 2 29 -3 0 -5 7 -26 15 -45 14
-34 16 -36 45 -26 34 12 35 17 15 65 -16 38 -13 54 11 54 15 0 17 12 8 48 -6
19 -11 22 -34 17 -21 -5 -29 -2 -35 12 -3 10 -31 81 -60 159 l-54 141 39 144
c22 79 38 149 36 155 -5 13 -54 25 -60 15z"/>
</g>
</svg>
