<?xml version="1.0" standalone="no"?>
<!DOCTYPE svg PUBLIC "-//W3C//DTD SVG 20010904//EN"
 "http://www.w3.org/TR/2001/REC-SVG-20010904/DTD/svg10.dtd">
<svg version="1.0" xmlns="http://www.w3.org/2000/svg"
 width="96.000000pt" height="96.000000pt" viewBox="0 0 96.000000 96.000000"
 preserveAspectRatio="xMidYMid meet">
<metadata>
Created by potrace 1.16, written by Peter Selinger 2001-2019
</metadata>
<g transform="translate(0.000000,96.000000) scale(0.100000,-0.100000)"
fill="#000000" stroke="none">
<path d="M457 923 c-4 -3 -7 -87 -7 -185 l0 -178 -195 -260 c-107 -143 -195
-262 -195 -265 0 -3 19 -5 43 -5 42 1 43 2 112 96 l70 95 43 -51 c24 -27 52
-50 63 -50 11 0 43 30 80 75 l62 75 52 0 53 0 88 -120 89 -119 43 -1 c23 0 42
2 42 5 0 3 -88 122 -195 265 l-195 260 0 65 0 65 44 0 c30 0 46 -5 50 -15 5
-13 21 -15 88 -13 l83 3 0 115 0 115 -55 3 c-35 2 -58 9 -63 18 -6 11 -30 14
-101 14 -51 0 -96 -3 -99 -7z m81 -520 l51 -68 -50 -3 c-47 -3 -52 -6 -97 -62
-26 -32 -49 -59 -52 -59 -3 0 -17 16 -32 35 l-27 36 71 94 c39 52 74 94 78 94
4 0 31 -30 58 -67z"/>
</g>
</svg>
