<?xml version="1.0" standalone="no"?>
<!DOCTYPE svg PUBLIC "-//W3C//DTD SVG 20010904//EN"
 "http://www.w3.org/TR/2001/REC-SVG-20010904/DTD/svg10.dtd">
<svg version="1.0" xmlns="http://www.w3.org/2000/svg"
 width="96.000000pt" height="96.000000pt" viewBox="0 0 96.000000 96.000000"
 preserveAspectRatio="xMidYMid meet">
<metadata>
Created by potrace 1.16, written by Peter Selinger 2001-2019
</metadata>
<g transform="translate(0.000000,96.000000) scale(0.100000,-0.100000)"
fill="#000000" stroke="none">
<path d="M350 871 c-58 -31 -144 -79 -192 -105 l-88 -47 15 -30 c18 -34 20
-35 63 -9 l32 20 0 -140 0 -140 -60 0 -60 0 0 -30 0 -30 66 0 66 0 99 -86 99
-85 0 -65 0 -64 30 0 c27 0 30 3 30 30 0 27 3 30 30 30 27 0 30 -3 30 -30 0
-27 3 -30 30 -30 l30 0 0 64 0 64 99 86 100 86 65 0 66 0 0 30 0 30 -60 0 -60
0 0 141 0 141 34 -21 c43 -27 43 -27 61 9 15 29 14 30 -12 44 -16 8 -104 55
-196 105 -93 50 -178 91 -190 91 -12 -1 -69 -27 -127 -59z m250 -75 l115 -63
3 -156 3 -157 -75 0 -75 0 -3 103 -3 102 -85 0 -85 0 -3 -102 -3 -103 -75 0
-75 0 3 156 3 156 115 64 c63 35 117 63 120 63 3 0 57 -28 120 -63z"/>
</g>
</svg>
