<?xml version="1.0" standalone="no"?>
<!DOCTYPE svg PUBLIC "-//W3C//DTD SVG 20010904//EN"
 "http://www.w3.org/TR/2001/REC-SVG-20010904/DTD/svg10.dtd">
<svg version="1.0" xmlns="http://www.w3.org/2000/svg"
 width="96.000000pt" height="96.000000pt" viewBox="0 0 96.000000 96.000000"
 preserveAspectRatio="xMidYMid meet">
<metadata>
Created by potrace 1.16, written by Peter Selinger 2001-2019
</metadata>
<g transform="translate(0.000000,96.000000) scale(0.100000,-0.100000)"
fill="#000000" stroke="none">
<path d="M412 841 c-72 -157 -62 -147 -110 -122 l-41 21 -29 -43 c-77 -112
-112 -216 -112 -331 1 -131 53 -232 155 -301 187 -125 439 -57 533 143 24 51
27 69 27 167 0 121 -15 171 -86 293 -33 55 -225 259 -264 279 -18 10 -25 1
-73 -106z m271 -203 c79 -120 108 -254 79 -358 -13 -43 -74 -140 -90 -140 -4
0 -5 25 -4 56 5 78 -43 176 -128 259 l-61 60 -66 -69 c-86 -90 -126 -174 -121
-251 1 -30 0 -55 -3 -55 -12 0 -60 70 -81 117 -40 91 -23 221 44 340 l29 53
39 -20 c22 -11 44 -20 50 -20 6 0 36 55 68 121 l56 121 76 -78 c41 -44 92
-105 113 -136z m-159 -270 c72 -83 93 -165 61 -228 -41 -79 -169 -79 -210 0
-20 39 -19 96 4 145 20 42 87 125 101 125 5 0 25 -19 44 -42z"/>
</g>
</svg>
