<?xml version="1.0" standalone="no"?>
<!DOCTYPE svg PUBLIC "-//W3C//DTD SVG 20010904//EN"
 "http://www.w3.org/TR/2001/REC-SVG-20010904/DTD/svg10.dtd">
<svg version="1.0" xmlns="http://www.w3.org/2000/svg"
 width="96.000000pt" height="96.000000pt" viewBox="0 0 96.000000 96.000000"
 preserveAspectRatio="xMidYMid meet">
<metadata>
Created by potrace 1.16, written by Peter Selinger 2001-2019
</metadata>
<g transform="translate(0.000000,96.000000) scale(0.100000,-0.100000)"
fill="#000000" stroke="none">
<path d="M163 879 c-74 -36 -133 -121 -133 -189 0 -29 2 -31 32 -28 28 3 33 8
39 37 4 18 16 45 26 60 20 26 79 71 94 71 4 0 -6 -25 -23 -55 -29 -53 -51
-115 -42 -115 20 0 82 43 91 63 16 36 73 97 89 97 19 0 18 -3 -16 -57 -16 -26
-30 -50 -30 -54 0 -4 16 -9 35 -11 32 -4 38 0 56 29 11 18 24 33 29 33 10 0
27 -45 36 -92 l6 -36 -44 21 c-32 16 -61 22 -114 22 -61 0 -77 -4 -120 -30
-70 -44 -107 -108 -112 -194 -3 -46 1 -79 12 -104 15 -38 15 -38 45 -23 l29
15 -14 48 c-12 41 -12 55 0 93 l13 45 8 -30 c11 -43 46 -115 55 -115 4 0 17 8
29 18 21 17 21 17 3 67 -11 28 -22 67 -25 87 -5 33 -3 37 22 46 l28 10 6 -61
c2 -34 10 -74 17 -89 12 -26 14 -27 41 -12 16 8 29 16 29 18 0 3 -7 32 -16 66
-8 34 -13 64 -10 67 9 10 50 -6 80 -30 l29 -24 -13 -62 c-18 -84 -60 -171
-121 -247 -82 -103 -99 -114 -180 -114 l-69 0 0 -30 0 -30 420 0 420 0 0 30 0
30 -75 0 -75 0 0 45 c0 39 -6 52 -39 87 -36 40 -42 42 -104 46 -65 4 -66 4
-107 -35 -37 -34 -43 -46 -48 -91 l-5 -52 -69 0 c-79 0 -79 -7 -6 79 53 61
103 167 123 256 18 81 51 125 106 144 28 10 29 9 29 -22 -1 -18 -7 -50 -15
-72 -15 -41 -15 -42 27 -66 15 -8 20 -3 33 26 8 20 17 58 21 86 6 48 16 57 43
40 17 -11 7 -79 -20 -136 l-19 -40 22 -17 c13 -10 26 -18 30 -18 11 0 44 69
53 109 5 24 10 30 16 20 17 -28 20 -86 6 -126 -14 -40 -14 -41 16 -58 35 -21
41 -15 57 61 22 103 -25 207 -117 261 -63 37 -165 40 -231 6 l-44 -21 6 36 c9
47 26 92 37 92 4 0 17 -13 29 -30 17 -23 29 -30 56 -30 43 0 43 14 4 68 -35
49 -36 52 -11 52 19 0 62 -48 83 -95 10 -22 71 -65 93 -65 16 0 -32 118 -63
153 -21 24 -1 21 38 -5 43 -30 70 -67 79 -109 6 -30 11 -34 40 -37 l34 -3 -6
46 c-6 58 -46 118 -105 160 -37 25 -55 30 -117 33 -87 5 -145 -17 -195 -74
l-30 -35 -30 35 c-67 75 -196 100 -287 55z m491 -668 c23 -20 37 -56 30 -76
-9 -22 -159 -22 -168 0 -11 30 24 83 64 98 20 7 51 -2 74 -22z"/>
</g>
</svg>
