<?xml version="1.0" standalone="no"?>
<!DOCTYPE svg PUBLIC "-//W3C//DTD SVG 20010904//EN"
 "http://www.w3.org/TR/2001/REC-SVG-20010904/DTD/svg10.dtd">
<svg version="1.0" xmlns="http://www.w3.org/2000/svg"
 width="96.000000pt" height="96.000000pt" viewBox="0 0 96.000000 96.000000"
 preserveAspectRatio="xMidYMid meet">
<metadata>
Created by potrace 1.16, written by Peter Selinger 2001-2019
</metadata>
<g transform="translate(0.000000,96.000000) scale(0.100000,-0.100000)"
fill="#000000" stroke="none">
<path d="M300 900 l0 -30 75 0 75 0 0 -30 c0 -16 -4 -30 -9 -30 -5 0 -22 -11
-38 -24 -20 -17 -34 -22 -44 -15 -8 5 -36 9 -63 9 -41 0 -53 -5 -82 -34 -30
-30 -34 -40 -34 -84 0 -39 6 -57 24 -79 17 -20 22 -34 15 -44 -5 -8 -9 -35 -9
-61 0 -35 6 -54 24 -75 17 -20 22 -34 15 -44 -5 -8 -9 -36 -9 -62 0 -42 5 -54
34 -83 21 -21 44 -34 60 -34 24 0 26 -4 26 -41 0 -33 6 -47 34 -75 30 -30 40
-34 86 -34 46 0 56 4 86 34 28 28 34 42 34 75 0 37 2 41 26 41 16 0 39 13 60
34 29 29 34 41 34 83 0 26 -4 54 -9 62 -7 10 -2 24 15 44 18 21 24 40 24 75 0
26 -4 53 -9 61 -7 10 -2 24 15 44 18 22 24 40 24 79 0 44 -4 54 -34 84 -29 29
-41 34 -82 34 -27 0 -55 -4 -63 -9 -10 -7 -24 -2 -44 15 -16 13 -33 24 -38 24
-5 0 -9 14 -9 30 l0 30 75 0 75 0 0 30 0 30 -180 0 -180 0 0 -30z"/>
</g>
</svg>
