<?xml version="1.0" standalone="no"?>
<!DOCTYPE svg PUBLIC "-//W3C//DTD SVG 20010904//EN"
 "http://www.w3.org/TR/2001/REC-SVG-20010904/DTD/svg10.dtd">
<svg version="1.0" xmlns="http://www.w3.org/2000/svg"
 width="96.000000pt" height="96.000000pt" viewBox="0 0 96.000000 96.000000"
 preserveAspectRatio="xMidYMid meet">
<metadata>
Created by potrace 1.16, written by Peter Selinger 2001-2019
</metadata>
<g transform="translate(0.000000,96.000000) scale(0.100000,-0.100000)"
fill="#000000" stroke="none">
<path d="M232 877 c-29 -29 -52 -59 -52 -67 0 -8 37 -52 82 -97 l83 -83 -83
-83 c-45 -45 -82 -89 -82 -97 0 -8 19 -33 41 -56 l41 -42 -17 -79 c-9 -43 -21
-95 -26 -115 l-10 -38 -74 0 -75 0 0 -30 0 -30 420 0 420 0 0 30 0 30 -75 0
-74 0 -10 38 c-5 20 -17 72 -26 115 l-17 79 41 42 c22 23 41 48 41 56 0 8 -37
52 -82 97 l-83 83 83 83 c45 45 82 89 82 98 0 19 -101 119 -120 119 -8 0 -52
-37 -97 -82 l-83 -83 -83 83 c-45 45 -89 82 -98 82 -8 0 -38 -24 -67 -53z
m153 -117 c44 -44 86 -80 95 -80 8 0 52 37 97 82 79 78 84 82 100 65 17 -16
13 -21 -65 -100 -45 -45 -82 -89 -82 -97 0 -8 37 -52 82 -97 78 -79 82 -84 65
-100 -16 -17 -21 -13 -100 65 -45 45 -89 82 -97 82 -8 0 -52 -37 -97 -82 -79
-78 -84 -82 -100 -65 -17 16 -13 21 65 100 45 45 82 89 82 97 0 8 -37 52 -82
97 -70 70 -80 84 -68 97 7 9 15 16 19 16 4 0 42 -36 86 -80z m171 -342 c40
-40 74 -83 77 -95 l5 -23 -158 0 -158 0 5 23 c5 20 139 167 153 167 3 0 37
-33 76 -72z m103 -215 c5 -21 11 -48 14 -60 l5 -23 -198 0 -198 0 5 23 c3 12
9 39 14 60 l10 37 169 0 169 0 10 -37z"/>
</g>
</svg>
