<?xml version="1.0" standalone="no"?>
<!DOCTYPE svg PUBLIC "-//W3C//DTD SVG 20010904//EN"
 "http://www.w3.org/TR/2001/REC-SVG-20010904/DTD/svg10.dtd">
<svg version="1.0" xmlns="http://www.w3.org/2000/svg"
 width="96.000000pt" height="96.000000pt" viewBox="0 0 96.000000 96.000000"
 preserveAspectRatio="xMidYMid meet">
<metadata>
Created by potrace 1.16, written by Peter Selinger 2001-2019
</metadata>
<g transform="translate(0.000000,96.000000) scale(0.100000,-0.100000)"
fill="#000000" stroke="none">
<path d="M259 777 c-108 -51 -204 -98 -213 -106 -14 -12 -16 -32 -12 -155 2
-78 4 -150 3 -161 -6 -110 0 -234 13 -260 l15 -30 415 0 415 0 15 30 c13 27
19 135 12 255 0 14 1 88 4 166 4 121 2 143 -12 154 -28 24 -416 200 -438 199
-11 0 -109 -42 -217 -92z m416 -66 c172 -79 190 -90 193 -114 l3 -27 -391 0
-391 0 3 26 c3 24 22 36 193 115 105 49 192 88 195 89 3 0 91 -40 195 -89z
m-345 -336 l0 -135 -120 0 -119 0 5 33 c10 58 8 57 94 57 l80 0 0 30 0 30 -79
0 c-79 0 -79 0 -90 30 -5 17 -8 37 -6 45 3 8 7 22 10 30 3 12 25 15 115 15
l110 0 0 -135z m240 0 l0 -135 -90 0 -90 0 0 135 0 135 90 0 90 0 0 -135z
m288 106 c6 -17 7 -43 3 -58 -7 -27 -9 -28 -89 -31 l-82 -3 0 -29 0 -30 79 0
c86 0 81 3 95 -63 l6 -27 -120 0 -120 0 0 135 0 135 109 0 109 0 10 -29z m-2
-317 c-3 -9 -6 -22 -6 -30 0 -12 -57 -14 -370 -14 -203 0 -370 3 -370 8 0 4
-3 17 -6 30 l-6 22 382 0 c344 0 382 -2 376 -16z"/>
</g>
</svg>
